<?xml version="1.0" encoding="UTF-8" standalone="no"?>
<svg
   viewBox="0 0 369.65514 60.348068"
   version="1.1"
   id="svg11"
   sodipodi:docname="559bd21e45f455e44ec61f13dfd62d4c.svg"
   width="369.65515"
   height="60.348068"
   xmlns:inkscape="http://www.inkscape.org/namespaces/inkscape"
   xmlns:sodipodi="http://sodipodi.sourceforge.net/DTD/sodipodi-0.dtd"
   xmlns="http://www.w3.org/2000/svg"
   xmlns:svg="http://www.w3.org/2000/svg">
  <defs
     id="defs15" />
  <sodipodi:namedview
     id="namedview13"
     pagecolor="#ffffff"
     bordercolor="#666666"
     borderopacity="1.0"
     inkscape:pageshadow="2"
     inkscape:pageopacity="0.0"
     inkscape:pagecheckerboard="0" />
  <g
     id="SvgjsG5238"
     featurekey="UqkkrJ-0"
     transform="matrix(0.54868265,0,0,0.54868265,-24.695622,-24.693903)"
     fill="#111111">
    <path
       d="m 149.069,80.073 c -0.354,-0.873 -0.741,-1.737 -1.143,-2.591 7.788,-14.021 9.177,-24.166 3.966,-29.378 -5.21,-5.21 -15.354,-3.823 -29.374,3.964 -0.856,-0.402 -1.72,-0.786 -2.596,-1.141 -3.159,-1.281 -6.461,-2.259 -9.813,-2.908 -6.644,-1.286 -13.578,-1.285 -20.218,0 -3.353,0.649 -6.654,1.627 -9.813,2.909 -3.219,1.305 -6.318,2.937 -9.214,4.848 -2.97,1.961 -5.764,4.243 -8.304,6.782 -2.537,2.539 -4.819,5.332 -6.781,8.303 -1.913,2.898 -3.544,5.998 -4.848,9.213 -1.28,3.157 -2.259,6.458 -2.909,9.813 -0.643,3.321 -0.969,6.723 -0.969,10.109 0,3.386 0.326,6.788 0.969,10.109 0.65,3.355 1.629,6.656 2.909,9.813 0.355,0.875 0.738,1.739 1.141,2.595 -7.787,14.018 -9.176,24.162 -3.964,29.374 2.074,2.074 4.927,3.106 8.494,3.106 5.746,-0.001 13.347,-2.678 22.525,-7.99 0.006,-0.003 0.011,-0.007 0.017,-0.01 0.017,-0.01 0.034,-0.02 0.05,-0.03 11.793,-6.835 25.189,-17.5 37.731,-30.043 10.547,-10.546 19.758,-21.694 26.49,-31.989 0.709,2.049 1.278,4.154 1.69,6.283 0.558,2.886 0.841,5.84 0.841,8.78 0,2.94 -0.283,5.895 -0.841,8.779 -0.563,2.91 -1.412,5.774 -2.522,8.512 -1.13,2.786 -2.544,5.474 -4.203,7.987 -1.701,2.577 -3.684,5.003 -5.892,7.211 -2.202,2.204 -4.628,4.186 -7.21,5.89 -2.511,1.659 -5.197,3.072 -7.986,4.203 -2.739,1.11 -5.604,1.96 -8.513,2.522 -3.139,0.607 -6.348,0.879 -9.56,0.836 -1.909,-0.073 -3.526,1.506 -3.56,3.438 -0.034,1.933 1.505,3.526 3.438,3.56 0.3,0.006 0.601,0.008 0.901,0.008 3.387,0 6.788,-0.326 10.109,-0.969 3.354,-0.649 6.655,-1.628 9.813,-2.908 3.217,-1.305 6.317,-2.936 9.214,-4.849 2.975,-1.964 5.768,-4.246 8.303,-6.782 2.54,-2.54 4.822,-5.333 6.783,-8.304 1.914,-2.899 3.545,-5.999 4.848,-9.213 1.28,-3.156 2.259,-6.457 2.909,-9.813 0.643,-3.322 0.968,-6.724 0.968,-10.108 0,-3.384 -0.325,-6.786 -0.968,-10.109 -0.649,-3.353 -1.628,-6.654 -2.908,-9.812 z m -96.011,66.866 c -1.889,-1.889 -1.448,-7.831 3.136,-17.211 1.867,2.744 3.998,5.339 6.367,7.707 2.364,2.364 4.958,4.496 7.708,6.367 -9.381,4.584 -15.321,5.026 -17.211,3.137 z m 58.918,-34.967 c -11.55,11.55 -23.787,21.412 -34.672,27.974 -0.877,-0.499 -1.744,-1.017 -2.582,-1.571 -2.581,-1.704 -5.007,-3.687 -7.21,-5.89 -2.208,-2.208 -4.189,-4.635 -5.891,-7.21 -1.659,-2.515 -3.073,-5.202 -4.203,-7.988 -1.11,-2.737 -1.959,-5.602 -2.522,-8.512 -0.559,-2.884 -0.842,-5.838 -0.842,-8.779 0,-2.941 0.283,-5.896 0.842,-8.779 0.563,-2.91 1.412,-5.774 2.522,-8.512 1.131,-2.788 2.545,-5.475 4.203,-7.987 1.702,-2.579 3.685,-5.005 5.89,-7.21 2.207,-2.206 4.633,-4.188 7.211,-5.89 2.51,-1.657 5.197,-3.072 7.987,-4.203 2.74,-1.111 5.604,-1.96 8.513,-2.523 5.768,-1.116 11.79,-1.117 17.558,0 2.908,0.563 5.772,1.411 8.513,2.522 2.791,1.132 5.478,2.546 7.987,4.204 1.938,1.279 3.801,2.725 5.535,4.295 1.433,1.297 3.646,1.188 4.943,-0.244 1.298,-1.433 1.188,-3.646 -0.244,-4.944 -1.816,-1.646 -3.76,-3.165 -5.778,-4.537 9.379,-4.583 15.317,-5.023 17.207,-3.135 2.227,2.227 1.237,10.068 -5.993,22.563 -6.538,11.298 -16.827,24.209 -28.974,36.356 z"
       id="path2" />
  </g>
  <g
     id="SvgjsG5239"
     featurekey="0kuQ8p-0"
     transform="matrix(2.2178802,0,0,2.2178802,79.334631,-7.9524198)"
     fill="#111111">
    <path
       d="M 6.48,20 5.7,12.54 H 5.66 L 4.88,20 H 1.86 L 0.3,6 H 2.44 L 3.6,17.04 H 3.64 L 4.68,6 H 6.8 L 7.88,17.12 H 7.92 L 9.04,6 h 1.92 L 9.4,20 Z M 14.26,8 v 3.9 h 3.02 v 2 H 14.26 V 18 h 3.8 v 2 h -6 V 6 h 6 V 8 Z M 22.74,6 C 25.02,6 26,7.06 26,9.22 v 0.5 c 0,1.44 -0.44,2.34 -1.42,2.8 v 0.04 c 1.18,0.46 1.64,1.5 1.64,2.98 v 1.14 c 0,2.16 -1.14,3.32 -3.34,3.32 H 19.42 V 6 Z M 22.6,13.7 H 21.62 V 18 h 1.26 c 0.74,0 1.14,-0.34 1.14,-1.38 V 15.4 c 0,-1.3 -0.42,-1.7 -1.42,-1.7 z M 22.68,8 h -1.06 v 3.7 h 0.86 c 0.82,0 1.32,-0.36 1.32,-1.48 V 9.44 C 23.8,8.44 23.46,8 22.68,8 Z m 8.1,-2 c 2.2,0 3.28,1.22 3.28,3.46 v 1.82 c 0,2.24 -1.08,3.46 -3.28,3.46 H 29.74 V 20 h -2.2 V 6 Z m 0,2 h -1.04 v 4.74 h 1.04 c 0.7,0 1.08,-0.32 1.08,-1.32 V 9.32 C 31.86,8.32 31.48,8 30.78,8 Z m 4.2,-2 h 2.2 v 10.8 c 0,1 0.44,1.36 1.14,1.36 0.7,0 1.14,-0.36 1.14,-1.36 V 6 h 2.08 v 10.66 c 0,2.24 -1.12,3.52 -3.28,3.52 -2.16,0 -3.28,-1.28 -3.28,-3.52 z m 8.06,14 V 6 h 2.2 v 12 h 3.62 v 2 z m 6.5,-10.64 c 0,-2.24 1.1,-3.52 3.24,-3.52 2.14,0 3.24,1.28 3.24,3.52 V 9.8 H 53.94 V 9.22 c 0,-1 -0.4,-1.38 -1.1,-1.38 -0.7,0 -1.1,0.38 -1.1,1.38 0,1.02 0.44,1.78 1.88,3.04 1.84,1.62 2.42,2.78 2.42,4.38 0,2.24 -1.12,3.52 -3.28,3.52 -2.16,0 -3.28,-1.28 -3.28,-3.52 v -0.86 h 2.08 v 1 c 0,1 0.44,1.36 1.14,1.36 0.7,0 1.14,-0.36 1.14,-1.36 0,-1.02 -0.44,-1.78 -1.88,-3.04 -1.84,-1.62 -2.42,-2.78 -2.42,-4.38 z M 59.5,8 v 3.9 h 3.02 v 2 H 59.5 V 18 h 3.8 v 2 h -6 V 6 h 6 v 2 z m 13.14,-2 2.24,14 h -2.22 l -0.38,-2.54 h -2.7 L 69.2,20 H 67.18 L 69.42,6 Z m -1.74,2.48 -1.04,7.08 h 2.12 L 70.94,8.48 Z M 80.6,20 77.9,9.86 H 77.86 V 20 H 75.88 V 6 h 2.76 l 2.22,8.38 H 80.9 V 6 h 1.96 v 14 z m 8.72,-14 2.24,14 h -2.22 l -0.38,-2.54 h -2.7 L 85.88,20 H 83.86 L 86.1,6 Z m -1.74,2.48 -1.04,7.08 h 2.12 L 87.62,8.48 Z m 5,11.52 V 6 h 2.2 v 12 h 3.62 v 2 z m 7.6,0 V 15.36 L 97.4,6 h 2.3 l 1.66,6.38 h 0.04 L 103.06,6 h 2.1 l -2.78,9.36 V 20 Z M 105.4,8 V 6 h 6.8 v 2 h -2.3 v 12 h -2.2 V 8 Z m 7.76,12 V 6 h 2.2 v 14 z m 8.1,-5.22 h 2.08 v 1.86 c 0,2.24 -1.12,3.52 -3.28,3.52 -2.16,0 -3.28,-1.28 -3.28,-3.52 V 9.36 c 0,-2.24 1.12,-3.52 3.28,-3.52 2.16,0 3.28,1.28 3.28,3.52 v 1.36 h -2.08 v -1.5 c 0,-1 -0.44,-1.38 -1.14,-1.38 -0.7,0 -1.14,0.38 -1.14,1.38 v 7.56 c 0,1 0.44,1.36 1.14,1.36 0.7,0 1.14,-0.36 1.14,-1.36 z m 3.14,-5.42 c 0,-2.24 1.1,-3.52 3.24,-3.52 2.14,0 3.24,1.28 3.24,3.52 V 9.8 H 128.8 V 9.22 c 0,-1 -0.4,-1.38 -1.1,-1.38 -0.7,0 -1.1,0.38 -1.1,1.38 0,1.02 0.44,1.78 1.88,3.04 1.84,1.62 2.42,2.78 2.42,4.38 0,2.24 -1.12,3.52 -3.28,3.52 -2.16,0 -3.28,-1.28 -3.28,-3.52 v -0.86 h 2.08 v 1 c 0,1 0.44,1.36 1.14,1.36 0.7,0 1.14,-0.36 1.14,-1.36 0,-1.02 -0.44,-1.78 -1.88,-3.04 -1.84,-1.62 -2.42,-2.78 -2.42,-4.38 z"
       id="path5" />
  </g>
  <g
     id="SvgjsG5240"
     featurekey="Nh6iBa-0"
     transform="matrix(0.54717177,0,0,0.54717177,79.748296,43.804516)"
     fill="#111111">
    <path
       d="M 0.52,9.36 C 0.52,7.12 1.62,5.84 3.76,5.84 5.9,5.84 7,7.12 7,9.36 V 9.8 H 4.92 V 9.22 c 0,-1 -0.4,-1.38 -1.1,-1.38 -0.7,0 -1.1,0.38 -1.1,1.38 0,1.02 0.44,1.78 1.88,3.04 1.84,1.62 2.42,2.78 2.42,4.38 0,2.24 -1.12,3.52 -3.28,3.52 -2.16,0 -3.28,-1.28 -3.28,-3.52 v -0.86 h 2.08 v 1 c 0,1 0.44,1.36 1.14,1.36 0.7,0 1.14,-0.36 1.14,-1.36 C 4.82,15.76 4.38,15 2.94,13.74 1.1,12.12 0.52,10.96 0.52,9.36 Z M 16.667937,8 V 6 h 6.800001 V 8 H 21.167937 V 20 H 18.967938 V 8 Z m 20.907938,-2 2.24,14 h -2.22 l -0.38,-2.54 h -2.7 l -0.38,2.54 h -2.02 l 2.24,-14 z m -1.74,2.48 -1.04,7.08 h 2.12 l -1.04,-7.08 z M 51.923812,20 v -4.64 l -2.78,-9.36 h 2.3 l 1.66,6.38 h 0.04 l 1.66,-6.38 h 2.1 l -2.78,9.36 V 20 Z m 27.015876,0 V 6 h 2.2 v 14 z m 17.527937,0 -2.7,-10.14 h -0.04 V 20 h -1.98 V 6 h 2.76 l 2.22,8.38 h 0.04 V 6 h 1.96 V 20 Z M 121.1835,9.36 c 0,-2.24 1.1,-3.52 3.24,-3.52 2.14,0 3.24,1.28 3.24,3.52 V 9.8 h -2.08 V 9.22 c 0,-1 -0.4,-1.38 -1.1,-1.38 -0.7,0 -1.1,0.38 -1.1,1.38 0,1.02 0.44,1.78 1.88,3.04 1.84,1.62 2.42,2.78 2.42,4.38 0,2.24 -1.12,3.52 -3.28,3.52 -2.16,0 -3.28,-1.28 -3.28,-3.52 v -0.86 h 2.08 v 1 c 0,1 0.44,1.36 1.14,1.36 0.7,0 1.14,-0.36 1.14,-1.36 0,-1.02 -0.44,-1.78 -1.88,-3.04 -1.84,-1.62 -2.42,-2.78 -2.42,-4.38 z M 139.89144,20 v -4.64 l -2.78,-9.36 h 2.3 l 1.66,6.38 h 0.04 l 1.66,-6.38 h 2.1 l -2.78,9.36 V 20 Z m 19.58794,0 -2.7,-10.14 h -0.04 V 20 h -1.98 V 6 h 2.76 l 2.22,8.38 h 0.04 V 6 h 1.96 v 14 z m 17.16793,-5.22 h 2.08 v 1.86 c 0,2.24 -1.12,3.52 -3.28,3.52 -2.16,0 -3.28,-1.28 -3.28,-3.52 V 9.36 c 0,-2.24 1.12,-3.52 3.28,-3.52 2.16,0 3.28,1.28 3.28,3.52 v 1.36 h -2.08 v -1.5 c 0,-1 -0.44,-1.38 -1.14,-1.38 -0.7,0 -1.14,0.38 -1.14,1.38 v 7.56 c 0,1 0.44,1.36 1.14,1.36 0.7,0 1.14,-0.36 1.14,-1.36 z m 30.25588,5.22 -0.78,-7.46 h -0.04 l -0.78,7.46 h -3.02 l -1.56,-14 h 2.14 l 1.16,11.04 h 0.04 l 1.04,-11.04 h 2.12 l 1.08,11.12 h 0.04 l 1.12,-11.12 h 1.92 l -1.56,14 z m 14.60794,0 V 6 h 2.2 V 20 Z M 233.69906,8 V 6 h 6.8 v 2 h -2.3 v 12 h -2.2 V 8 Z m 18.98794,6 v 6 h -2.2 V 6 h 2.2 v 6 h 2.5 V 6 h 2.24 v 14 h -2.24 v -6 z m 29.55588,6 v -4.64 l -2.78,-9.36 h 2.3 l 1.66,6.38 h 0.04 l 1.66,-6.38 h 2.1 l -2.78,9.36 V 20 Z M 298.85081,9.22 v 7.56 c 0,1 0.44,1.38 1.14,1.38 0.7,0 1.14,-0.38 1.14,-1.38 V 9.22 c 0,-1 -0.44,-1.38 -1.14,-1.38 -0.7,0 -1.14,0.38 -1.14,1.38 z m -2.2,7.42 V 9.36 c 0,-2.24 1.18,-3.52 3.34,-3.52 2.16,0 3.34,1.28 3.34,3.52 v 7.28 c 0,2.24 -1.18,3.52 -3.34,3.52 -2.16,0 -3.34,-1.28 -3.34,-3.52 z M 313.67875,6 h 2.2 v 10.8 c 0,1 0.44,1.36 1.14,1.36 0.7,0 1.14,-0.36 1.14,-1.36 V 6 h 2.08 v 10.66 c 0,2.24 -1.12,3.52 -3.28,3.52 -2.16,0 -3.28,-1.28 -3.28,-3.52 z m 23.92794,14 h -2.24 c -0.12,-0.36 -0.2,-0.58 -0.2,-1.72 v -2.2 c 0,-1.3 -0.44,-1.78 -1.44,-1.78 h -0.76 V 20 h -2.2 V 6 h 3.32 c 2.28,0 3.26,1.06 3.26,3.22 v 1.1 c 0,1.44 -0.46,2.36 -1.44,2.82 v 0.04 c 1.1,0.46 1.46,1.5 1.46,2.96 v 2.16 c 0,0.68 0.02,1.18 0.24,1.7 z m -3.58,-12 h -1.06 v 4.3 h 0.86 c 0.82,0 1.32,-0.36 1.32,-1.48 V 9.44 c 0,-1 -0.34,-1.44 -1.12,-1.44 z m 25.65587,1.36 c 0,-2.24 1.1,-3.52 3.24,-3.52 2.14,0 3.24,1.28 3.24,3.52 V 9.8 h -2.08 V 9.22 c 0,-1 -0.4,-1.38 -1.1,-1.38 -0.7,0 -1.1,0.38 -1.1,1.38 0,1.02 0.44,1.78 1.88,3.04 1.84,1.62 2.42,2.78 2.42,4.38 0,2.24 -1.12,3.52 -3.28,3.52 -2.16,0 -3.28,-1.28 -3.28,-3.52 v -0.86 h 2.08 v 1 c 0,1 0.44,1.36 1.14,1.36 0.7,0 1.14,-0.36 1.14,-1.36 0,-1.02 -0.44,-1.78 -1.88,-3.04 -1.84,-1.62 -2.42,-2.78 -2.42,-4.38 z M 376.4705,20 V 6 h 2.2 V 20 Z M 388.65844,8 V 6 h 6.8 v 2 h -2.3 v 12 h -2.2 V 8 Z m 18.98794,0 v 3.9 h 3.02 v 2 h -3.02 V 18 h 3.8 v 2 h -6 V 6 h 6 v 2 z m 14.18793,9.88 h 2.12 V 20 h -2.12 z"
       id="path8" />
  </g>
</svg>
